<?xml version="1.0" standalone="no"?>
<!DOCTYPE svg PUBLIC "-//W3C//DTD SVG 20010904//EN"
 "http://www.w3.org/TR/2001/REC-SVG-20010904/DTD/svg10.dtd">
<svg version="1.0" xmlns="http://www.w3.org/2000/svg"
 width="400.000000pt" height="400.000000pt" viewBox="0 0 400.000000 400.000000"
 preserveAspectRatio="xMidYMid meet">
<metadata>
Created by potrace 1.14, written by Peter Selinger 2001-2017
</metadata>
<g transform="translate(0.000000,400.000000) scale(0.100000,-0.100000)"
fill="#000000" stroke="none">
<path d="M3085 3957 c-32 -55 -31 -59 5 -80 27 -16 28 -20 18 -45 -7 -15 -13
-28 -14 -30 -1 -1 -14 3 -28 10 -23 10 -29 9 -37 -3 -11 -17 -11 -2 0 26 6 16
1 25 -26 43 -56 38 -99 54 -111 39 -24 -30 -45 -117 -46 -197 l-1 -85 -34 -5
c-40 -6 -53 -29 -22 -37 30 -8 26 -17 -11 -28 -27 -8 -173 13 -738 108 -892
148 -1110 181 -1174 172 -84 -11 -157 -60 -175 -119 -10 -30 -115 -696 -131
-826 -4 -36 -84 -499 -178 -1030 -234 -1325 -217 -1205 -178 -1277 38 -69 77
-90 201 -110 l105 -17 0 -56 c0 -31 -5 -94 -11 -139 -12 -91 -7 -131 18 -131
9 0 63 27 120 60 56 33 105 60 107 60 3 0 50 -36 105 -80 54 -44 106 -80 115
-80 9 0 18 10 21 22 9 40 26 120 41 198 13 71 34 116 34 76 0 -17 7 -18 83
-13 110 9 122 0 114 -80 -5 -43 -22 -87 -67 -176 -33 -64 -60 -120 -60 -122 0
-3 94 -5 209 -5 l208 0 -14 88 c-11 71 -12 98 -2 149 7 35 16 68 20 74 13 22
170 7 190 -18 24 -28 71 -44 162 -54 51 -6 96 -14 100 -19 12 -11 -34 -97 -88
-163 -36 -44 -42 -57 -28 -57 25 1 97 94 128 166 61 140 71 150 122 129 51
-22 87 -82 108 -179 17 -85 17 -87 -1 -101 -18 -13 -16 -14 19 -15 33 0 37 3
32 18 -6 20 -35 169 -35 181 0 9 78 -5 198 -36 51 -13 121 -25 154 -26 54 -1
63 1 84 26 28 32 42 80 51 165 4 45 10 62 21 62 19 0 274 -43 482 -81 177 -33
205 -31 215 13 3 13 21 122 40 243 18 121 75 477 125 790 95 594 207 1338 210
1390 3 53 0 64 -19 74 -23 13 -411 82 -422 76 -4 -3 -9 0 -11 7 -6 17 52 70
92 85 54 20 141 75 181 115 80 79 92 150 45 279 -36 101 -33 145 13 176 48 33
113 32 131 -2 12 -22 10 -27 -19 -60 -46 -53 -41 -97 14 -115 41 -14 95 6 120
44 39 59 25 165 -28 214 -61 58 -185 73 -275 33 -106 -47 -127 -110 -93 -278
36 -173 27 -217 -55 -266 l-44 -27 0 24 c0 37 -35 141 -59 174 -25 36 -26 42
-6 42 22 0 18 16 -10 38 -31 25 -32 36 -2 28 12 -4 46 -10 75 -13 44 -4 52 -3
52 11 0 9 -3 16 -7 16 -5 0 -21 12 -36 26 -28 24 -29 28 -30 127 -2 89 -6 110
-31 164 -32 70 -63 97 -101 87 -33 -8 -32 -1 8 49 51 63 51 63 5 96 -39 29
-47 31 -130 31 l-87 0 -26 -43z m-142 -99 l22 -23 -33 -3 c-40 -4 -46 0 -37
27 8 27 20 26 48 -1z m297 -48 c0 -26 -15 -40 -42 -40 -27 0 -30 3 -24 23 3
12 6 27 6 34 0 9 8 9 30 2 17 -6 30 -15 30 -19z m-2249 1 c30 -6 117 -20 194
-31 170 -27 1561 -258 1593 -265 19 -5 52 -55 52 -80 0 -13 -39 -3 -55 15 -36
40 -117 47 -140 11 -3 -6 -15 -11 -25 -11 -11 0 -35 -16 -55 -36 -35 -35 -36
-35 -88 -25 -161 32 -1420 241 -1425 236 -3 -3 -1 -9 4 -14 5 -5 339 -64 742
-132 712 -120 733 -124 738 -146 14 -54 107 -72 159 -31 l27 21 210 -35 c192
-33 227 -43 228 -68 0 -3 -26 -5 -58 -5 -70 0 -119 -30 -130 -79 -3 -17 -5
-34 -4 -38 1 -5 -5 -8 -14 -8 -13 0 -721 121 -999 171 -60 10 -292 51 -514 89
-455 79 -485 86 -594 142 -137 71 -153 96 -122 203 16 54 52 92 107 115 30 12
102 12 169 1z m2339 -16 c0 -2 -10 -25 -22 -49 -16 -34 -29 -47 -51 -52 -37
-8 -42 -2 -25 32 16 35 98 92 98 69z m-416 -22 l23 -18 -29 -27 c-17 -16 -32
-28 -34 -28 -7 0 -4 76 3 83 9 10 11 9 37 -10z m230 11 c23 -9 20 -44 -3 -44
-33 0 -51 11 -51 31 0 19 23 25 54 13z m201 -121 c-8 -56 -22 -62 -34 -16 -9
31 -7 44 12 83 l22 46 3 -36 c2 -19 1 -54 -3 -77z m-331 35 c-5 -7 -2 -9 8 -6
8 4 20 3 27 -2 9 -5 4 -9 -13 -12 -19 -4 -30 0 -37 13 -8 15 -6 19 6 19 10 0
13 -5 9 -12z m-33 -41 c17 -31 29 -37 55 -25 23 11 120 4 139 -10 6 -4 19 -20
28 -35 23 -36 15 -82 -19 -103 -31 -21 -30 -37 1 -58 31 -20 33 -56 4 -82 -34
-31 -147 -26 -224 9 -69 33 -103 60 -120 101 -10 24 -10 34 4 57 19 34 31 33
49 -4 14 -28 20 -31 46 -21 20 8 21 30 2 37 -12 5 -12 13 -4 41 20 63 -10 90
-40 36 -18 -31 -42 -40 -42 -16 0 8 7 21 15 30 8 8 15 21 15 28 0 8 9 24 20
36 24 26 51 18 71 -21z m829 -17 c0 -28 -2 -30 -38 -30 -32 0 -41 5 -50 25
-17 36 -18 35 38 35 49 0 50 -1 50 -30z m-585 10 c3 -5 1 -10 -4 -10 -6 0 -11
5 -11 10 0 6 2 10 4 10 3 0 8 -4 11 -10z m666 -12 c22 -12 39 -25 39 -29 0
-13 -63 -19 -76 -8 -14 11 -20 59 -8 59 4 0 24 -10 45 -22z m-194 -19 c19 -38
-2 -48 -74 -33 -37 7 -35 17 11 45 37 22 47 21 63 -12z m-417 -6 c6 -16 15
-36 21 -46 8 -14 6 -25 -5 -42 -14 -21 -14 -24 7 -38 21 -15 21 -15 3 -23 -13
-5 -21 -3 -24 4 -6 20 -20 13 -26 -14 -7 -27 13 -55 44 -62 17 -4 32 -24 23
-32 -3 -3 -8 1 -10 8 -3 6 -9 12 -14 12 -6 0 -8 -4 -5 -8 2 -4 -6 -9 -19 -10
-19 -1 -25 5 -31 31 -3 17 -14 37 -23 43 -14 11 -13 15 12 38 16 15 29 35 30
45 0 10 7 17 13 14 16 -6 12 20 -5 41 -11 13 -11 16 0 16 10 1 9 4 -3 14 -20
14 -24 36 -8 36 6 0 15 -12 20 -27z m682 -67 c4 -22 2 -24 -34 -22 -32 1 -38
4 -38 24 0 18 5 22 34 22 28 0 34 -4 38 -24z m-1122 5 c0 -5 -6 -14 -14 -20
-10 -9 -15 -8 -19 3 -3 8 -1 17 6 20 19 7 27 7 27 -3z m798 1 c19 -13 5 -92
-17 -92 -9 0 -22 -5 -29 -12 -9 -9 -12 0 -12 44 0 54 6 65 35 67 6 0 16 -3 23
-7z m-2928 -18 c27 -32 148 -93 245 -124 75 -24 335 -71 1054 -190 892 -149
956 -161 980 -184 16 -16 40 -26 65 -28 38 -3 39 -5 52 -53 12 -47 8 -79 -62
-515 -69 -430 -107 -658 -169 -995 -30 -167 -54 -324 -60 -398 -3 -32 -24
-183 -47 -335 -22 -152 -44 -317 -48 -367 -12 -155 -38 -191 -129 -182 -70 8
-88 14 -95 33 -3 9 48 358 114 777 65 419 154 980 195 1247 42 267 81 516 87
553 10 59 10 70 -5 84 -16 16 -308 69 -1467 267 -212 36 -416 75 -455 87 -77
24 -207 86 -271 130 l-41 28 8 58 c20 134 23 140 49 107z m3220 -48 c18 -23
-26 -78 -60 -74 -36 4 -36 31 0 46 16 8 30 20 30 28 0 18 14 18 30 0z m-575
-26 c3 -5 1 -10 -4 -10 -6 0 -11 5 -11 10 0 6 2 10 4 10 3 0 8 -4 11 -10z
m-607 -20 c18 -11 32 -28 32 -39 0 -27 -17 -35 -23 -11 -3 11 -21 29 -41 41
-20 11 -36 23 -36 25 0 11 39 2 68 -16z m-73 -24 c46 -19 47 -54 4 -90 -52
-44 -129 -30 -129 23 0 33 43 81 72 81 10 0 34 -7 53 -14z m974 1 c6 -8 8 -17
4 -20 -3 -4 -2 -7 4 -7 9 0 24 -34 22 -49 0 -2 5 -7 11 -11 7 -4 -8 -9 -34
-11 -28 -3 -45 0 -42 6 2 5 -1 21 -6 35 -18 49 12 91 41 57z m-701 -81 c26
-13 65 -27 87 -31 22 -5 33 -10 25 -11 -28 -6 -274 42 -278 54 -7 23 113 15
166 -12z m-2277 -13 c13 -16 12 -17 -3 -4 -10 7 -18 15 -18 17 0 8 8 3 21 -13z
m2632 -15 c-3 -6 -6 -24 -5 -41 1 -28 0 -29 -17 -11 -12 13 -14 21 -7 26 16
11 3 18 -22 11 -26 -6 -28 -25 -6 -47 21 -22 10 -34 -29 -33 -25 1 -36 7 -45
25 -6 14 -9 29 -5 35 4 6 0 8 -10 4 -10 -3 -17 -2 -17 3 0 12 45 24 59 16 5
-3 11 -1 13 6 3 7 21 12 41 12 19 0 34 4 31 8 -3 4 2 5 10 2 9 -3 13 -11 9
-16z m-2666 -30 c-3 -8 -6 -5 -6 6 -1 11 2 17 5 13 3 -3 4 -12 1 -19z m3063
-32 c0 -46 -10 -55 -50 -47 -33 6 -35 8 -35 46 0 31 4 41 20 46 35 10 65 -11
65 -45z m-556 -67 c39 -31 37 -88 -5 -123 -44 -37 -119 -37 -148 0 -27 34 -26
58 0 96 37 51 107 64 153 27z m521 -9 c3 -5 1 -10 -5 -10 -6 0 -9 -4 -6 -9 3
-4 -3 -16 -14 -26 -18 -16 -20 -16 -20 -2 0 10 -5 17 -10 17 -7 0 -7 6 0 20
11 21 44 27 55 10z m-428 -30 c14 -29 -11 -90 -38 -90 -16 0 -16 3 -4 26 8 16
11 41 8 62 -5 27 -3 34 8 30 8 -2 19 -15 26 -28z m351 -22 c20 -20 14 -37 -18
-53 -50 -26 -67 0 -28 42 25 26 29 28 46 11z m-161 -69 c-2 -23 -7 -24 -32 -6
-22 17 -12 37 14 30 12 -3 19 -13 18 -24z m53 1 c0 -5 -2 -10 -4 -10 -3 0 -8
5 -11 10 -3 6 -1 10 4 10 6 0 11 -4 11 -10z m25 1 c3 -5 1 -12 -5 -16 -5 -3
-10 1 -10 9 0 18 6 21 15 7z m-229 -10 c-4 -5 0 -12 6 -14 8 -3 6 -6 -4 -6
-18 -1 -24 10 -11 22 9 10 15 8 9 -2z m34 -51 c0 -5 -2 -10 -4 -10 -3 0 -8 5
-11 10 -3 6 -1 10 4 10 6 0 11 -4 11 -10z m399 -180 c46 -10 88 -23 93 -28 11
-11 1 -130 -12 -152 -6 -9 -52 -4 -206 24 -110 20 -257 45 -329 57 -71 12
-131 23 -133 25 -2 1 3 30 10 64 11 55 14 61 33 55 60 -19 96 -25 153 -25 48
0 66 4 78 18 15 18 19 18 122 0 59 -11 145 -28 191 -38z m-236 -166 c152 -26
277 -50 277 -53 0 -3 -74 -33 -165 -67 l-164 -61 -143 120 c-79 66 -145 121
-147 123 -2 2 12 -1 30 -6 19 -4 159 -30 312 -56z m-208 -77 c71 -60 131 -111
133 -112 1 -1 -72 -30 -163 -65 -91 -34 -169 -60 -172 -56 -4 3 2 59 11 124
31 203 37 232 49 225 7 -4 70 -56 142 -116z m515 -19 c-1 -34 -46 -328 -52
-333 -4 -4 -181 139 -286 230 -2 1 42 19 96 39 54 20 125 47 158 61 74 30 84
31 84 3z m-217 -232 c64 -54 117 -99 117 -100 0 -2 -57 7 -127 20 -71 12 -202
35 -292 50 -90 16 -160 30 -155 32 269 104 310 118 324 108 9 -6 69 -55 133
-110z m-253 -66 c129 -23 273 -49 320 -58 l85 -17 -1 -52 c-1 -29 -5 -64 -8
-79 -7 -25 -10 -26 -49 -21 -60 7 -621 108 -628 113 -6 3 4 82 16 132 3 12 11
22 17 22 7 0 118 -18 248 -40z m-1236 -10 c38 -14 107 -81 123 -117 24 -58 14
-68 -18 -17 -45 72 -68 94 -124 120 -33 16 -43 24 -28 24 12 0 33 -4 47 -10z
m-32 -29 c49 -21 113 -86 134 -137 20 -49 16 -55 -7 -10 -26 48 -97 118 -144
140 -19 9 -35 19 -35 21 0 8 6 6 52 -14z m-407 -9 c-6 -5 -29 -23 -52 -41 -30
-23 -53 -54 -78 -104 -29 -61 -35 -67 -35 -42 0 38 40 123 71 152 25 23 64 41
89 42 8 1 10 -2 5 -7z m458 -71 c34 -32 67 -79 67 -96 0 -3 -12 -2 -27 1 -23
5 -26 4 -15 -7 6 -7 12 -21 12 -31 0 -15 -8 -11 -47 18 -122 93 -303 140 -382
99 -29 -14 -131 -122 -131 -137 0 -4 -9 -8 -20 -8 -20 0 -20 0 1 43 12 23 37
61 56 84 35 43 67 64 56 37 -7 -19 0 -18 50 8 46 23 159 35 221 24 20 -4 47
-19 61 -33 32 -36 43 -23 16 20 -11 19 -21 37 -21 41 0 13 66 -27 103 -63z
m-475 2 c-31 -32 -69 -83 -84 -113 -19 -37 -29 -49 -32 -38 -6 28 47 114 99
163 70 65 83 55 17 -12z m1744 -89 c153 -26 275 -50 273 -54 -2 -3 -74 -35
-159 -69 l-156 -63 -116 103 c-64 57 -126 112 -137 122 -21 17 -21 18 -2 14
11 -3 145 -27 297 -53z m-207 -69 c71 -63 131 -118 132 -122 3 -8 -326 -147
-333 -141 -5 6 60 378 66 378 3 0 64 -52 135 -115z m535 -17 c0 -45 -54 -368
-62 -368 -10 0 -278 240 -278 250 0 7 306 137 328 139 6 0 12 -9 12 -21z
m-1804 -53 c11 -11 19 -26 16 -33 -2 -6 1 -12 7 -12 6 0 4 -11 -5 -27 -7 -16
-14 -43 -14 -60 0 -28 6 -36 40 -53 48 -24 50 -25 48 -2 -1 9 2 34 6 55 5 25
5 47 -3 63 -12 28 -5 31 21 7 11 -10 18 -30 18 -55 0 -27 4 -37 11 -32 9 5 10
-14 4 -72 -8 -86 -25 -117 -91 -161 -41 -29 -67 -29 -99 -1 -35 31 -73 44
-122 43 -41 -1 -42 -1 -53 44 -7 25 -14 84 -17 131 -5 79 -3 86 16 98 22 13
22 12 6 -18 -11 -22 -14 -41 -9 -63 4 -18 7 -38 5 -44 -3 -17 12 -16 54 1 30
13 35 20 35 48 0 18 -7 45 -14 61 -9 17 -11 27 -4 27 7 0 7 4 -1 13 -6 8 -7
17 -3 22 4 4 -15 5 -42 1 -41 -5 -47 -4 -42 10 3 9 6 21 6 27 0 7 4 19 10 27
7 12 13 9 31 -14 23 -29 133 -106 152 -106 11 0 7 16 -23 90 l-22 55 29 -25
c15 -13 37 -34 49 -45z m144 -25 c0 -17 -3 -17 -39 3 -43 24 -36 41 10 25 18
-6 29 -17 29 -28z m-350 -20 c-8 -5 -19 -10 -25 -10 -5 0 -3 5 5 10 8 5 20 10
25 10 6 0 3 -5 -5 -10z m286 -22 c4 -6 -5 -22 -22 -36 l-29 -25 -3 22 c-6 38
36 69 54 39z m-247 -45 c-27 -28 -39 -29 -39 -4 0 30 29 55 46 40 13 -10 11
-15 -7 -36z m1750 -95 c76 -68 136 -124 132 -126 -4 -1 -119 18 -256 44 -138
25 -278 50 -313 56 -35 6 -59 15 -55 19 17 16 329 138 341 134 7 -3 76 -60
151 -127z m-484 -48 c3 -5 1 -10 -4 -10 -6 0 -11 5 -11 10 0 6 2 10 4 10 3 0
8 -4 11 -10z m16 -87 c-12 -20 -14 -14 -5 12 4 9 9 14 11 11 3 -2 0 -13 -6
-23z m-21 0 c0 -14 -26 -18 -34 -4 -7 11 0 18 19 18 8 0 15 -6 15 -14z m-1152
-56 c29 -27 28 -35 -8 -79 -43 -52 -66 -110 -81 -202 l-12 -79 -40 46 c-21 26
-43 47 -49 47 -5 0 9 -21 31 -47 31 -34 38 -49 29 -55 -20 -12 -26 -10 -34 15
-4 12 -18 35 -32 52 -14 17 -20 31 -13 33 6 2 11 9 11 17 0 7 11 37 24 66 13
30 27 83 31 119 10 94 17 103 73 95 26 -4 57 -16 70 -28z m1162 19 c0 -2 -6
-9 -14 -15 -11 -9 -16 -9 -22 0 -4 7 -3 9 4 5 6 -3 13 -2 17 4 6 10 15 14 15
6z m2 -38 c-7 -7 -12 -8 -12 -2 0 14 12 26 19 19 2 -3 -1 -11 -7 -17z m-1065
-27 c11 -17 6 -24 -43 -62 -37 -28 -58 -39 -65 -32 -7 7 -2 20 14 39 13 16 29
39 36 52 14 27 42 29 58 3z m-303 -152 c-9 -21 -20 -39 -25 -39 -14 0 -10 44
6 66 19 26 19 33 -4 27 -23 -6 -35 21 -20 49 10 19 12 18 35 -21 22 -40 23
-44 8 -82z m11 101 c3 -5 1 -10 -4 -10 -6 0 -11 5 -11 10 0 6 2 10 4 10 3 0 8
-4 11 -10z m387 -35 c2 -13 12 -21 29 -23 15 -2 32 -14 43 -32 21 -36 39 -38
54 -7 8 17 11 -1 12 -88 4 -195 -1 -330 -13 -343 -7 -9 -22 -11 -46 -7 -54 10
-87 31 -111 69 -11 19 -43 55 -71 80 -29 26 -49 53 -49 65 0 20 4 20 74 15 51
-5 75 -3 80 5 11 17 20 155 12 185 -14 54 -26 24 -26 -64 0 -74 -3 -92 -16
-97 -20 -8 -123 15 -149 33 -11 8 -35 14 -53 14 l-34 0 7 43 c9 56 17 62 45
32 34 -36 54 -32 76 18 20 47 112 143 124 130 5 -4 10 -17 12 -28z m896 10
c-3 -3 -9 2 -12 12 -6 14 -5 15 5 6 7 -7 10 -15 7 -18z m76 -20 c-5 -11 52
-133 71 -153 2 -2 49 20 106 48 77 39 99 54 88 62 -10 7 -8 8 8 3 14 -4 44 5
85 26 64 33 66 30 14 -28 -11 -13 -16 -23 -12 -23 5 0 -1 -8 -13 -17 -11 -10
-54 -61 -95 -113 l-76 -95 33 -25 c17 -14 48 -39 67 -56 l34 -32 -129 24 c-72
13 -151 26 -177 30 -32 4 -48 11 -48 21 0 7 5 57 11 109 7 66 7 99 0 108 -7 9
-6 19 5 35 9 12 14 31 11 43 -6 23 1 48 14 48 4 0 6 -7 3 -15z m-34 -17 c0
-10 -7 -18 -15 -18 -8 0 -15 5 -15 11 0 5 -6 7 -12 3 -10 -6 -10 -5 -1 7 17
21 43 20 43 -3z m-55 -38 c3 -6 -1 -7 -9 -4 -18 7 -21 14 -7 14 6 0 13 -4 16
-10z m40 -30 c-3 -5 -11 -10 -16 -10 -6 0 -7 5 -4 10 3 6 11 10 16 10 6 0 7
-4 4 -10z m422 -6 c-3 -3 -12 -4 -19 -1 -8 3 -5 6 6 6 11 1 17 -2 13 -5z
m-457 -50 c0 -2 -7 -4 -15 -4 -8 0 -15 4 -15 10 0 5 7 7 15 4 8 -4 15 -8 15
-10z m-1082 -80 c29 -20 29 -66 -1 -96 -12 -13 -37 -66 -56 -118 -48 -141 -51
-145 -48 -65 3 100 -16 93 -27 -10 -12 -123 -30 -109 -21 18 5 79 4 99 -5 90
-7 -6 -14 -50 -17 -97 -4 -53 -10 -83 -16 -79 -6 4 -7 42 -3 104 3 59 2 99 -3
99 -9 0 -14 -17 -27 -95 -8 -51 -23 -79 -25 -50 -10 120 55 236 166 294 48 25
54 26 83 5z m1286 -169 c253 -44 398 -73 407 -83 4 -4 3 -27 -2 -52 -5 -25
-12 -63 -15 -85 -24 -176 -68 -432 -74 -439 -5 -5 -73 3 -157 18 -82 14 -152
26 -155 26 -4 0 0 13 10 29 18 33 9 80 -18 89 -11 4 -10 1 3 -12 9 -10 14 -22
11 -27 -3 -6 -12 -2 -21 8 -12 15 -14 15 -9 1 5 -18 -36 -34 -56 -22 -7 5 -9
-2 -6 -20 6 -32 15 -31 -149 -4 -131 21 -133 21 -132 47 0 14 13 114 30 221
35 228 35 234 37 282 2 46 26 71 61 64 14 -3 120 -22 235 -41z m-2907 -307
c-3 -7 -5 -2 -5 12 0 14 2 19 5 13 2 -7 2 -19 0 -25z m721 -5 c96 -78 110
-220 31 -316 -82 -100 -234 -86 -303 27 -66 106 -35 251 65 304 63 34 155 27
207 -15z m2202 -245 c0 -4 -9 -8 -21 -8 -11 0 -18 4 -15 8 3 5 12 9 21 9 8 0
15 -4 15 -9z m-1760 -84 c43 -29 106 -122 116 -171 6 -29 3 -31 -80 -73 -65
-33 -100 -45 -144 -47 -83 -5 -90 3 -52 65 43 70 80 165 80 205 0 56 19 61 80
21z m142 -49 c-6 -34 -12 -32 -12 6 0 16 4 28 9 25 4 -3 6 -17 3 -31z"/>
<path d="M3049 3571 c-33 -34 -37 -61 -10 -85 25 -23 47 -12 65 34 27 69 -6
99 -55 51z"/>
<path d="M2889 3426 c30 -36 251 -56 251 -22 0 10 -15 12 -68 8 -47 -3 -86 1
-124 12 -68 20 -74 20 -59 2z"/>
<path d="M3198 3263 c7 -3 16 -2 19 1 4 3 -2 6 -13 5 -11 0 -14 -3 -6 -6z"/>
<path d="M1820 1715 c0 -8 5 -15 10 -15 6 0 10 7 10 15 0 8 -4 15 -10 15 -5 0
-10 -7 -10 -15z"/>
<path d="M1720 1680 c0 -5 7 -10 15 -10 8 0 15 5 15 10 0 6 -7 10 -15 10 -8 0
-15 -4 -15 -10z"/>
<path d="M1940 1670 c19 -13 30 -13 30 0 0 6 -10 10 -22 10 -19 0 -20 -2 -8
-10z"/>
<path d="M1830 1630 l-45 -7 53 -1 c29 -1 52 2 52 8 0 6 -3 9 -7 8 -5 0 -28
-4 -53 -8z"/>
<path d="M3285 880 c3 -5 8 -10 11 -10 2 0 4 5 4 10 0 6 -5 10 -11 10 -5 0 -7
-4 -4 -10z"/>
<path d="M3100 860 c-9 -6 -10 -10 -3 -10 6 0 15 5 18 10 8 12 4 12 -15 0z"/>
<path d="M2980 812 c13 -11 30 -18 36 -15 7 2 20 -6 29 -19 9 -13 15 -17 13
-9 -5 18 -45 47 -78 57 l-25 7 25 -21z"/>
<path d="M3086 797 c-14 -10 -17 -21 -11 -45 4 -19 11 -29 17 -26 13 8 2 -13
-20 -38 -12 -15 -13 -22 -2 -48 11 -26 17 -30 37 -26 16 5 23 2 23 -8 0 -9 -7
-12 -18 -9 -19 5 -27 -22 -12 -42 4 -5 7 -22 6 -37 -1 -14 2 -24 7 -21 5 3 7
14 4 24 -3 11 -1 19 4 19 6 0 5 8 -1 20 -9 16 -8 20 6 20 13 0 15 -8 12 -35
-2 -19 0 -35 5 -35 6 0 7 25 3 61 l-6 62 33 -6 c32 -5 34 -4 29 20 -4 23 -6
24 -17 10 -16 -22 -25 -21 -25 2 0 11 -5 23 -10 26 -6 4 -3 17 10 35 11 15 20
37 20 49 0 36 -59 54 -94 28z m59 -87 c-3 -5 -15 -10 -26 -10 -11 0 -17 5 -14
10 3 6 15 10 26 10 11 0 17 -4 14 -10z"/>
<path d="M3180 716 c0 -2 9 -6 20 -9 11 -3 20 -1 20 4 0 5 -9 9 -20 9 -11 0
-20 -2 -20 -4z"/>
<path d="M2884 696 c-7 -18 3 -36 20 -36 17 0 15 42 -1 48 -7 2 -16 -3 -19
-12z"/>
<path d="M2958 693 c6 -2 18 -2 25 0 6 3 1 5 -13 5 -14 0 -19 -2 -12 -5z"/>
<path d="M3030 690 c-9 -6 -10 -10 -3 -10 6 0 15 5 18 10 8 12 4 12 -15 0z"/>
<path d="M2968 653 c7 -3 16 -2 19 1 4 3 -2 6 -13 5 -11 0 -14 -3 -6 -6z"/>
<path d="M2880 640 c8 -5 20 -10 25 -10 6 0 3 5 -5 10 -8 5 -19 10 -25 10 -5
0 -3 -5 5 -10z"/>
<path d="M3317 630 c3 -11 12 -20 19 -20 19 0 18 26 -2 34 -22 9 -23 8 -17
-14z"/>
<path d="M3065 590 c-3 -6 -3 -19 0 -30 4 -11 2 -20 -4 -20 -6 0 -11 -7 -11
-15 0 -12 3 -12 18 3 13 12 16 23 11 38 -4 12 -5 25 -2 28 4 3 4 6 0 6 -3 0
-9 -5 -12 -10z"/>
<path d="M3075 480 c-3 -5 -1 -10 4 -10 6 0 11 5 11 10 0 6 -2 10 -4 10 -3 0
-8 -4 -11 -10z"/>
<path d="M3040 459 c0 -11 4 -18 10 -14 5 3 7 12 3 20 -7 21 -13 19 -13 -6z"/>
<path d="M2810 460 c0 -6 7 -10 15 -10 8 0 15 2 15 4 0 2 -7 6 -15 10 -8 3
-15 1 -15 -4z"/>
<path d="M2988 463 c7 -3 16 -2 19 1 4 3 -2 6 -13 5 -11 0 -14 -3 -6 -6z"/>
<path d="M3210 370 c8 -5 22 -9 30 -9 10 0 8 3 -5 9 -27 12 -43 12 -25 0z"/>
<path d="M716 644 c-129 -88 -58 -344 96 -344 41 0 109 36 138 72 15 20 23 47
26 95 5 59 3 74 -18 113 -35 64 -77 90 -147 90 -44 0 -65 -6 -95 -26z"/>
</g>
</svg>
